<svg width="24" height="24" viewBox="0 0 24 24" fill="none" xmlns="http://www.w3.org/2000/svg">
<g id="Alter Icon">
<path id="Ellipse 1512 (Stroke)" fill-rule="evenodd" clip-rule="evenodd" d="M12 22C17.5228 22 22 17.5228 22 12C22 6.47715 17.5228 2 12 2C6.47715 2 2 6.47715 2 12C2 17.5228 6.47715 22 12 22ZM12 24C18.6274 24 24 18.6274 24 12C24 5.37258 18.6274 0 12 0C5.37258 0 0 5.37258 0 12C0 18.6274 5.37258 24 12 24Z" fill="white"/>
<path id="!" d="M12.9453 14.6172H10.9531L10.7422 6.6875H13.1641L12.9453 14.6172ZM11.9531 18.1406C11.7188 18.1406 11.5 18.0807 11.2969 17.9609C11.0938 17.8359 10.9323 17.6745 10.8125 17.4766C10.6979 17.2734 10.6406 17.0547 10.6406 16.8203C10.6406 16.5911 10.6979 16.3776 10.8125 16.1797C10.9323 15.9766 11.0938 15.8177 11.2969 15.7031C11.5 15.5885 11.7188 15.5312 11.9531 15.5312C12.1823 15.5312 12.3958 15.5885 12.5938 15.7031C12.7969 15.8177 12.9583 15.9766 13.0781 16.1797C13.2031 16.3776 13.2656 16.5911 13.2656 16.8203C13.2656 17.0547 13.2031 17.2734 13.0781 17.4766C12.9583 17.6745 12.7969 17.8359 12.5938 17.9609C12.3958 18.0807 12.1823 18.1406 11.9531 18.1406Z" fill="white"/>
</g>
</svg>
