<svg width="582" height="756" viewBox="0 0 582 756" fill="none" xmlns="http://www.w3.org/2000/svg">
<circle cx="325.372" cy="108.718" r="71.5343" transform="rotate(150 325.372 108.718)" fill="#FFDFDF"/>
<path d="M239.769 99.5202C236.502 96.2526 237.997 90.6733 242.46 89.4773L270.334 82.0086C274.797 80.8127 278.881 84.897 277.685 89.3605L270.217 117.234C269.021 121.697 263.441 123.192 260.174 119.925L239.769 99.5202Z" fill="#FFDFDF"/>
<path d="M291.81 130.192C295.235 150.254 312.189 159.119 329.257 157.177C343.841 155.518 355.963 143.681 359.209 130.192C360.965 122.893 358.679 114.09 350.1 115.065C341.521 116.041 341.294 126.807 347.164 133.656C352.138 139.458 359.209 141.483 369.669 140.505" stroke="#FF9494" stroke-width="5.14526"/>
<ellipse cx="305.752" cy="100.29" rx="6.08682" ry="8.52155" transform="rotate(15 305.752 100.29)" fill="#26282A"/>
<ellipse cx="329.446" cy="103.988" rx="6.08682" ry="8.52155" transform="rotate(15 329.446 103.988)" fill="#26282A"/>
<line x1="322.088" y1="87.972" x2="342.527" y2="83.4302" stroke="#26282A" stroke-width="5.14526"/>
<path d="M319.8 73.4984C295.025 74.8784 275.122 66.0601 263.244 57.9641C259.507 55.4166 261.54 50.6831 265.943 49.6448C269.186 48.88 272.848 47.3952 277.088 44.5615C318.645 7.52221 359.049 19.097 376.365 46.8764C408.073 53.2351 405.266 90.6443 399.84 111.129C399.084 113.982 395.968 115.438 393.363 114.051C371.609 102.464 366.052 77.3536 367.13 66.5535C363.666 68.8685 353.046 71.6464 319.8 73.4984Z" fill="#26282A"/>
<path d="M214.707 247.683C214.707 239.158 221.618 232.247 230.143 232.247H417.945C426.47 232.247 433.381 239.158 433.381 247.683V412.331C433.381 420.856 426.47 427.767 417.945 427.767H230.143C221.618 427.767 214.707 420.856 214.707 412.331V247.683Z" fill="#FFC800"/>
<path d="M419.741 438.058H227.985C220.433 438.058 213.99 443.521 212.756 450.971L179.092 654.209C177.534 663.613 184.788 672.167 194.32 672.167H284.049C291.671 672.167 298.152 666.604 299.306 659.07L323.959 498.211L356.601 659.788C358.056 666.989 364.384 672.167 371.731 672.167H470.238C480.271 672.167 487.637 662.746 485.218 653.009L434.721 449.771C433.011 442.889 426.832 438.058 419.741 438.058Z" fill="#AAD3FF"/>
<path d="M70.6406 251.428C72.0564 273.063 96.088 324.16 132.615 331.853C185.123 342.911 200.183 301.91 210.802 276.669C221.42 251.428 257.641 232.247 308.609 232.247C359.577 232.247 404.818 235.255 450.774 268.255C503.312 305.982 523.423 355.733 484.834 425.194" stroke="#FFC800" stroke-width="92.6147"/>
<path d="M29.9155 187.015C29.4099 178.505 35.8987 171.197 44.4086 170.691L90.6344 167.944C99.1444 167.439 106.453 173.928 106.959 182.438L109.552 226.095C110.058 234.605 103.569 241.914 95.0593 242.419L48.8335 245.166C40.3235 245.672 33.015 239.183 32.5094 230.673L29.9155 187.015Z" fill="#FFDFDF"/>
<path d="M79.2942 150.579C78.8728 143.487 84.2801 137.397 91.3718 136.975V136.975C98.4634 136.554 104.554 141.961 104.975 149.053L107.722 195.279C108.143 202.37 102.736 208.461 95.644 208.882V208.882C88.5524 209.304 82.462 203.896 82.0406 196.805L79.2942 150.579Z" fill="#FFDFDF"/>
<path d="M176.118 733.91C161.91 733.91 150.392 722.392 150.392 708.184V708.184C150.392 693.976 161.91 682.458 176.118 682.458L268.733 682.458C282.941 682.458 294.459 693.976 294.459 708.184V708.184C294.459 722.392 282.941 733.91 268.733 733.91L176.118 733.91Z" fill="#2274CC"/>
<path d="M387.074 733.91C372.866 733.91 361.348 722.392 361.348 708.184V708.184C361.348 693.976 372.866 682.458 387.074 682.458L479.689 682.458C493.897 682.458 505.415 693.976 505.415 708.184V708.184C505.415 722.392 493.897 733.91 479.689 733.91L387.074 733.91Z" fill="#2274CC"/>
<path d="M53.2388 176.622C61.6308 176.123 69.5648 177.791 70.2844 189.902C71.004 202.013 51.6051 208.603 51.0021 198.458C50.4293 188.82 74.3276 191.591 71.5455 211.128C70.2301 220.365 63.7951 223.477 58.9312 223.561C55.6624 223.616 52.2646 222.066 52.1257 217.368C51.9024 209.82 70.0637 209.705 72.2372 222.77C73.8545 232.491 67.1089 237.368 57.0282 237.967" stroke="#FF9494" stroke-width="5.14526"/>
<path d="M222.426 274.695C220.711 283.7 217.023 310.198 215.994 344.156" stroke="#CCA000" stroke-width="5.14526"/>
<rect x="260.606" y="184.138" width="15.3721" height="74.9391" rx="3.86363" fill="#2B91FF"/>
<rect x="349" y="184.138" width="15.3721" height="74.9391" rx="3.86363" fill="#2B91FF"/>
<rect x="439.939" y="366.138" width="15.3721" height="74.9391" rx="3.86363" transform="rotate(90 439.939 366.138)" fill="#2B91FF"/>
<path d="M250.999 251.432C250.999 247.165 254.458 243.705 258.726 243.705H365.856C370.123 243.705 373.583 247.165 373.583 251.432V282.38C373.583 308.245 394.551 329.212 420.416 329.212V329.212C423.865 329.212 426.66 332.008 426.66 335.457V477.138C426.66 521.321 390.843 557.138 346.66 557.138H288C243.817 557.138 208 521.321 208 477.138V334.271C208 331.477 210.265 329.212 213.059 329.212V329.212C234.012 329.212 250.999 312.226 250.999 291.273V251.432Z" fill="#55A7FF"/>
<path d="M264.449 349.429C264.449 345.162 267.909 341.702 272.176 341.702H356.641C360.908 341.702 364.368 345.162 364.368 349.429V381.807C364.368 407.413 343.61 428.17 318.004 428.17H310.813C285.207 428.17 264.449 407.413 264.449 381.807V349.429Z" fill="#2B91FF"/>
<path d="M417.256 490.578C409.873 486.316 407.344 476.875 411.606 469.493L437.662 424.362C441.925 416.979 451.365 414.45 458.748 418.712L499.886 442.463C507.269 446.726 509.798 456.166 505.536 463.549L479.48 508.679C475.217 516.062 465.777 518.592 458.394 514.329L417.256 490.578Z" fill="#FFDFDF"/>
<path d="M419.858 492.08L439.452 458.144" stroke="#FF9494" stroke-width="5.14526"/>
<path d="M437.824 502.452L457.417 468.516" stroke="#FF9494" stroke-width="5.14526"/>
<path d="M455.791 512.826L475.384 478.89" stroke="#FF9494" stroke-width="5.14526"/>
<path d="M424.081 446.073C417.933 447.72 411.613 444.071 409.965 437.923V437.923C408.318 431.774 411.967 425.455 418.115 423.807L447.06 416.051C453.209 414.404 459.529 418.052 461.176 424.201V424.201C462.824 430.349 459.175 436.669 453.026 438.317L424.081 446.073Z" fill="#FFDFDF"/>
</svg>
