<svg width="435" height="513" viewBox="0 0 435 513" fill="none" xmlns="http://www.w3.org/2000/svg">
<mask id="mask0_1163_4372" style="mask-type:alpha" maskUnits="userSpaceOnUse" x="0" y="0" width="435" height="513">
<rect width="435" height="513" fill="#D9D9D9"/>
</mask>
<g mask="url(#mask0_1163_4372)">
<path d="M161.602 256.111C156.603 259.024 154.911 265.438 157.824 270.437L175.629 300.999C178.542 305.999 184.956 307.69 189.956 304.778L217.814 288.547C222.814 285.635 224.505 279.221 221.593 274.221L203.787 243.659C200.874 238.659 194.46 236.968 189.461 239.88L161.602 256.111Z" fill="#FFDFDF"/>
<path d="M150.157 243.938C145.652 239.433 145.652 232.129 150.157 227.624L171.222 206.559C175.727 202.054 183.031 202.054 187.536 206.559L228.786 247.809C233.291 252.314 233.291 259.618 228.786 264.123L207.72 285.188C203.216 289.693 195.912 289.693 191.407 285.188L150.157 243.938Z" fill="#1A5799"/>
<path d="M152.321 241.213C149.317 238.21 149.317 233.341 152.321 230.338L173.935 208.723C176.938 205.72 181.807 205.72 184.811 208.723L226.448 250.36C229.451 253.364 229.451 258.233 226.448 261.236L204.833 282.85C201.83 285.854 196.961 285.854 193.958 282.85L152.321 241.213Z" fill="#CCD4DD"/>
<rect x="154.414" y="224.529" width="19.7682" height="5.87703" rx="2.88387" transform="rotate(-45 154.414 224.529)" fill="#1A5799"/>
<path d="M197.24 267.649C198.455 263.503 196.078 259.157 191.932 257.942C187.786 256.727 183.44 259.103 182.225 263.249L176.506 282.768C175.291 286.914 177.668 291.26 181.814 292.475C185.96 293.69 190.306 291.313 191.52 287.167L197.24 267.649Z" fill="#FFDFDF"/>
<path fill-rule="evenodd" clip-rule="evenodd" d="M162.808 228.092C102.847 243.047 41.384 207.855 24.2673 147.98C6.78373 86.8218 42.1892 23.0698 103.348 5.58624C164.506 -11.8974 228.258 23.5081 245.742 84.6665C261.312 139.133 234.934 195.657 185.775 219.724L184.115 238.516C183.948 240.408 181.794 241.41 180.239 240.319L162.808 228.092Z" fill="white"/>
<circle cx="193.635" cy="134.518" r="29.4811" transform="rotate(151.831 193.635 134.518)" fill="#FFDFDF"/>
<circle cx="29.4811" cy="29.4811" r="29.4811" transform="matrix(0.729345 0.684146 0.684146 -0.729345 31 131.471)" fill="#FFCCCC"/>
<path d="M158.494 129.602C157.191 128.214 157.88 125.935 159.735 125.501L171.314 122.792C173.169 122.358 174.797 124.094 174.246 125.917L170.802 137.3C170.251 139.123 167.933 139.665 166.63 138.276L158.494 129.602Z" fill="#FFDFDF"/>
<path d="M107.887 134.485C109.505 133.481 109.429 131.102 107.75 130.203L97.2663 124.588C95.5874 123.689 93.5649 124.945 93.6258 126.848L94.0058 138.735C94.0667 140.638 96.1653 141.762 97.7833 140.758L107.887 134.485Z" fill="#FFCCCC"/>
<path d="M179.526 142.923C180.672 151.232 187.539 155.107 194.596 154.532C200.625 154.041 205.774 149.325 207.289 143.811C208.108 140.828 207.282 137.171 203.736 137.46C200.189 137.749 199.954 142.181 202.282 145.079C204.254 147.535 207.14 148.462 211.461 148.197" stroke="#FF9494" stroke-width="2.12049"/>
<path d="M84.124 141.908C80.866 149.637 73.2301 151.603 66.563 149.221C60.8664 147.186 57.1135 141.298 57.0774 135.58" stroke="#FF6E6E" stroke-width="2.12049"/>
<ellipse cx="185.662" cy="130.789" rx="2.50854" ry="3.51195" transform="rotate(16.8315 185.662 130.789)" fill="#26282A"/>
<ellipse cx="195.373" cy="132.624" rx="2.50854" ry="3.51195" transform="rotate(16.8315 195.373 132.624)" fill="#26282A"/>
<line x1="192.555" y1="125.931" x2="201.034" y2="124.329" stroke="#26282A" stroke-width="2.12049"/>
<path d="M191.512 119.945C181.289 120.187 173.207 116.292 168.42 112.801C166.914 111.702 167.815 109.779 169.642 109.41C170.987 109.137 172.516 108.574 174.299 107.462C191.905 92.7528 208.396 98.0528 215.162 109.724C228.14 112.761 226.491 128.133 223.986 136.499C223.637 137.665 222.334 138.224 221.28 137.618C212.471 132.558 210.513 122.142 211.099 117.707C209.642 118.615 205.231 119.62 191.512 119.945Z" fill="#26282A"/>
<path d="M292.894 263.111C292.894 260.662 294.88 258.677 297.329 258.677H358.807C361.256 258.677 363.242 260.662 363.242 263.111V280.871C363.242 295.714 375.274 307.747 390.118 307.747C392.097 307.747 393.701 309.351 393.701 311.33V408.262C393.701 433.617 373.147 454.172 347.791 454.172H314.128C288.773 454.172 268.219 433.617 268.219 408.262V310.65C268.219 309.046 269.518 307.747 271.122 307.747C283.146 307.747 292.894 297.999 292.894 285.974V263.111Z" fill="#55A7FF"/>
<path d="M300.613 319.349C300.613 316.899 302.599 314.914 305.048 314.914H353.519C355.968 314.914 357.954 316.899 357.954 319.348V337.929C357.954 352.623 346.041 364.535 331.347 364.535H327.22C312.525 364.535 300.613 352.623 300.613 337.929V319.349Z" fill="#2B91FF"/>
<path d="M272.262 260.959C272.262 256.067 276.228 252.101 281.12 252.101H388.507C393.399 252.101 397.365 256.066 397.365 260.959V365.476C397.365 370.369 393.399 374.335 388.507 374.335H281.12C276.228 374.335 272.262 370.369 272.262 365.476V260.959Z" fill="#FFE999"/>
<path fill-rule="evenodd" clip-rule="evenodd" d="M92.6924 98.5829C103.068 102.48 115.039 98.4213 120.763 88.5071C127.134 77.4717 123.353 63.3607 112.317 56.9894C101.282 50.6181 87.171 54.3991 80.7997 65.4346C75.0821 75.3377 77.5404 87.7177 86.0803 94.7584L86.0803 99.3595C86.0803 100.711 87.5433 101.556 88.7138 100.88L92.6924 98.5829Z" fill="#FFD333"/>
<path fill-rule="evenodd" clip-rule="evenodd" d="M163.942 105.642C154.929 112.092 142.315 111.27 134.22 103.175C125.21 94.1644 125.21 79.5556 134.22 70.5452C143.231 61.5348 157.84 61.5348 166.85 70.5452C174.936 78.6312 175.765 91.2256 169.339 100.237L170.53 104.681C170.879 105.986 169.685 107.181 168.379 106.831L163.942 105.642Z" fill="#80BDFF"/>
<path d="M98.1301 80.2894C98.1301 78.3775 98.6515 77.3153 100.061 76.2531C101.201 75.384 101.819 74.8047 101.819 73.8777C101.819 72.9121 101.123 72.3134 99.9068 72.3134C98.6129 72.3134 97.9176 73.2211 97.9176 74.206H94.5573C94.5573 71.425 96.7589 69.3393 99.8875 69.3393C103.229 69.3393 105.121 71.2512 105.121 73.8777C105.121 75.3068 104.426 76.4462 103.171 77.4118C101.761 78.5127 101.317 79.2079 101.317 80.2894H98.1301ZM99.8296 85.7741C98.6515 85.7741 97.7825 84.9244 97.7825 83.7463C97.7825 82.5683 98.6515 81.6992 99.8296 81.6992C101.008 81.6992 101.877 82.5683 101.877 83.7463C101.877 84.9244 101.008 85.7741 99.8296 85.7741Z" fill="white"/>
<path d="M152.456 79.4204L151.567 89.9456H149.173L148.284 79.4204H152.456ZM150.37 91.3554C151.548 91.3554 152.417 92.2245 152.417 93.4026C152.417 94.5806 151.548 95.4304 150.37 95.4304C149.192 95.4304 148.323 94.5806 148.323 93.4026C148.323 92.2245 149.192 91.3554 150.37 91.3554Z" fill="white"/>
<path d="M387.953 378.211H279.156C274.531 378.211 270.684 381.77 270.325 386.381L261.243 503.013C260.842 508.161 264.911 512.559 270.075 512.559H321.565C326.306 512.559 330.206 508.826 330.414 504.09L333.549 432.731L342.075 504.742C342.602 509.2 346.382 512.559 350.871 512.559H407.628C413.109 512.559 417.275 507.632 416.363 502.227L396.688 385.596C395.969 381.332 392.277 378.211 387.953 378.211Z" fill="#AAD3FF"/>
<circle cx="335.778" cy="178.85" r="41.0513" transform="rotate(126.111 335.778 178.85)" fill="#FFDFDF"/>
<path d="M288.724 199.588C286.251 198.632 285.738 195.357 287.802 193.693L300.692 183.296C302.756 181.631 305.848 182.825 306.258 185.445L308.817 201.806C309.227 204.426 306.647 206.507 304.173 205.552L288.724 199.588Z" fill="#FFDFDF"/>
<path d="M324.669 161.665C311.99 168.146 299.498 168.145 291.383 166.657C288.83 166.189 288.797 163.233 290.866 161.665C292.39 160.51 293.967 158.88 295.532 156.407C308.73 127.315 332.62 123.998 348.162 134.55C366.277 130.518 373.498 150.799 375.412 162.808C375.678 164.481 374.381 165.969 372.692 165.847C358.585 164.823 349.834 152.938 347.889 147.021C346.61 149.041 341.683 152.967 324.669 161.665Z" fill="#26282A"/>
<path d="M204.554 300.889C212.543 314.291 230.188 329.719 252.75 319.188C273.697 309.41 263.573 293.222 277.235 272.023C285.747 258.813 301.791 252.1 325.956 252.1C355.204 252.1 366.127 247.562 392.5 266.5C422.649 288.15 424 347 369.5 347" stroke="#FFE999" stroke-width="53.1487"/>
<path d="M313.09 186.252C310.155 185.293 310.799 170.216 311.489 162.798L324.999 145.83L353.154 137.126L369.836 145.742C383.847 170.29 383.337 205.273 349.672 217.123C330.342 223.927 321.123 207.695 318.552 198.583C338.022 191.528 326.998 177.268 321.579 177.785C316.159 178.303 316.759 187.452 313.09 186.252Z" fill="#26282A"/>
<path d="M291.748 316.501C293.933 311.716 299.605 297.45 304.814 278.661" stroke="#FFC800" stroke-width="2.9527"/>
<path d="M394.419 321.993C394.615 316.736 394.42 301.384 392.072 282.03" stroke="#FFC800" stroke-width="2.9527"/>
<rect x="401.322" y="344.145" width="9.1819" height="133.137" rx="2.21722" transform="rotate(90 401.322 344.145)" fill="#2B91FF"/>
<path d="M8.18555 420.406H1.39453V419.504H8.18555V420.406ZM9.96094 427.572H0.386719V426.658H9.96094V427.572ZM5.12695 427.133H4.03125V422.955H5.12695V427.133ZM8.88281 420.535C8.88281 421.156 8.875 421.678 8.85938 422.1C8.84375 422.518 8.80859 423.014 8.75391 423.588C8.69922 424.158 8.61133 424.775 8.49023 425.439L7.35938 425.316C7.48828 424.688 7.58203 424.094 7.64062 423.535C7.69922 422.977 7.73438 422.482 7.74609 422.053C7.76172 421.619 7.76953 421.113 7.76953 420.535V419.504H8.88281V420.535ZM19.4709 424.678H18.4104V418.502H19.4709V424.678ZM18.7561 421.982H16.8284V421.068H18.7561V421.982ZM17.1506 424.613H16.0901V418.695H17.1506V424.613ZM19.4709 428.99H18.3752V426.037H12.3049V425.135H19.4709V428.99ZM15.1116 419.252C15.1155 420.1 14.967 420.871 14.6663 421.566C14.3655 422.262 13.9123 422.879 13.3069 423.418C12.7053 423.957 11.9553 424.412 11.0569 424.783L10.5178 423.951C11.2913 423.643 11.9377 423.275 12.4573 422.85C12.9768 422.424 13.3635 421.941 13.6174 421.402C13.8752 420.863 14.0041 420.279 14.0041 419.65V419.252H15.1116ZM14.3909 420.16H10.969V419.252H14.3909V420.16ZM29.3501 429.02H28.2309V418.49H29.3501V429.02ZM23.7251 419.281C24.2485 419.281 24.7153 419.434 25.1255 419.738C25.5356 420.043 25.8559 420.473 26.0864 421.027C26.3169 421.582 26.4321 422.229 26.4321 422.967C26.4321 423.709 26.3169 424.357 26.0864 424.912C25.8559 425.467 25.5356 425.896 25.1255 426.201C24.7153 426.502 24.2485 426.652 23.7251 426.652C23.2016 426.652 22.7329 426.502 22.3188 426.201C21.9087 425.896 21.5884 425.467 21.3579 424.912C21.1274 424.357 21.0122 423.709 21.0122 422.967C21.0122 422.229 21.1274 421.582 21.3579 421.027C21.5884 420.473 21.9087 420.043 22.3188 419.738C22.7329 419.434 23.2016 419.281 23.7251 419.281ZM23.7251 420.277C23.4048 420.277 23.1196 420.387 22.8696 420.605C22.6196 420.824 22.4263 421.137 22.2895 421.543C22.1567 421.945 22.0903 422.42 22.0903 422.967C22.0903 423.51 22.1567 423.984 22.2895 424.391C22.4263 424.797 22.6196 425.109 22.8696 425.328C23.1196 425.543 23.4048 425.65 23.7251 425.65C24.0454 425.65 24.3286 425.543 24.5747 425.328C24.8247 425.109 25.018 424.797 25.1548 424.391C25.2915 423.984 25.3598 423.51 25.3598 422.967C25.3598 422.42 25.2915 421.945 25.1548 421.543C25.018 421.137 24.8266 420.824 24.5805 420.605C24.3345 420.387 24.0493 420.277 23.7251 420.277ZM42.1826 429.02H41.0752V418.49H42.1826V429.02ZM34.9638 425.568C35.9365 425.572 36.8271 425.547 37.6357 425.492C38.4482 425.438 39.2861 425.342 40.1494 425.205L40.2607 426.119C39.3857 426.264 38.538 426.363 37.7177 426.418C36.8974 426.469 35.9795 426.494 34.9638 426.494H34.0673V425.568H34.9638ZM38.9716 423.277H35.2041V425.92H34.0673V422.387H37.8466V420.348H34.0498V419.439H38.9716V423.277ZM47.0637 428.99H45.9328V424.719H47.0637V428.99ZM50.843 428.99H49.7355V424.719H50.843V428.99ZM53.1984 425.475H43.5891V424.561H53.1984V425.475ZM45.8859 420.248H50.8781V418.906H51.9973V423.4H44.7844V418.906H45.8859V420.248ZM50.8781 422.504V421.133H45.8859V422.504H50.8781ZM63.3295 424.168H53.7202V423.312H63.3295V424.168ZM62.1459 427.215H55.9819V428.352H54.8686V426.477H61.0444V425.703H54.8569V424.895H62.1459V427.215ZM62.4741 428.867H54.8686V428.082H62.4741V428.867ZM62.1166 421.039H56.058V422.1H54.9565V420.301H61.0034V419.551H54.9272V418.766H62.1166V421.039ZM62.3041 422.621H54.9565V421.842H62.3041V422.621ZM74.8027 424.426H73.6952V418.502H74.8027V424.426ZM76.3437 421.771H74.5155V420.846H76.3437V421.771ZM74.8027 428.855H68.0761V424.971H74.8027V428.855ZM69.1659 427.965H73.7187V425.844H69.1659V427.965ZM68.1464 423.248H67.0331V419.023H68.1464V423.248ZM67.8886 422.785C68.6855 422.785 69.4765 422.748 70.2616 422.674C71.0468 422.6 71.8495 422.482 72.6698 422.322L72.8046 423.248C71.9687 423.412 71.1503 423.531 70.3495 423.605C69.5488 423.676 68.7284 423.711 67.8886 423.711H67.0331V422.785H67.8886ZM85.4142 428.99H84.2892V418.49H85.4142V428.99ZM82.297 419.621C82.297 420.691 82.131 421.682 81.799 422.592C81.4709 423.498 80.9435 424.334 80.2169 425.1C79.4904 425.861 78.5451 426.521 77.381 427.08L76.7834 426.178C77.7951 425.701 78.6252 425.146 79.2736 424.514C79.9259 423.881 80.4084 423.174 80.7209 422.393C81.0334 421.611 81.1896 420.748 81.1896 419.803V419.621H82.297ZM81.6701 420.512H77.2931V419.621H81.6701V420.512ZM95.3227 422.451H88.0746V421.572H95.3227V422.451ZM96.4125 424.672H86.8031V423.781H96.4125V424.672ZM89.182 422.018H88.0746V418.877H89.182V422.018ZM95.3812 428.744H88.0043V427.83H95.3812V428.744ZM89.1176 428.094H88.0043V425.674H89.1176V428.094ZM108.337 429.02H107.218V418.49H108.337V429.02ZM102.712 419.281C103.235 419.281 103.702 419.434 104.112 419.738C104.522 420.043 104.843 420.473 105.073 421.027C105.304 421.582 105.419 422.229 105.419 422.967C105.419 423.709 105.304 424.357 105.073 424.912C104.843 425.467 104.522 425.896 104.112 426.201C103.702 426.502 103.235 426.652 102.712 426.652C102.188 426.652 101.72 426.502 101.306 426.201C100.895 425.896 100.575 425.467 100.345 424.912C100.114 424.357 99.9989 423.709 99.9989 422.967C99.9989 422.229 100.114 421.582 100.345 421.027C100.575 420.473 100.895 420.043 101.306 419.738C101.72 419.434 102.188 419.281 102.712 419.281ZM102.712 420.277C102.391 420.277 102.106 420.387 101.856 420.605C101.606 420.824 101.413 421.137 101.276 421.543C101.143 421.945 101.077 422.42 101.077 422.967C101.077 423.51 101.143 423.984 101.276 424.391C101.413 424.797 101.606 425.109 101.856 425.328C102.106 425.543 102.391 425.65 102.712 425.65C103.032 425.65 103.315 425.543 103.561 425.328C103.811 425.109 104.005 424.797 104.141 424.391C104.278 423.984 104.347 423.51 104.347 422.967C104.347 422.42 104.278 421.945 104.141 421.543C104.005 421.137 103.813 420.824 103.567 420.605C103.321 420.387 103.036 420.277 102.712 420.277ZM113.294 428.99H112.146V425.023H113.294V428.99ZM116.927 428.99H115.802V425.023H116.927V428.99ZM119.364 425.34H109.755V424.432H119.364V425.34ZM114.536 418.889C115.275 418.889 115.927 418.984 116.493 419.176C117.06 419.363 117.497 419.633 117.806 419.984C118.118 420.332 118.275 420.74 118.275 421.209C118.275 421.666 118.118 422.068 117.806 422.416C117.497 422.76 117.06 423.025 116.493 423.213C115.927 423.4 115.275 423.494 114.536 423.494C113.798 423.494 113.148 423.4 112.585 423.213C112.023 423.025 111.583 422.76 111.267 422.416C110.954 422.068 110.798 421.666 110.798 421.209C110.798 420.74 110.954 420.332 111.267 419.984C111.579 419.633 112.017 419.363 112.579 419.176C113.146 418.984 113.798 418.889 114.536 418.889ZM114.536 419.791C114.017 419.791 113.562 419.848 113.171 419.961C112.78 420.074 112.478 420.238 112.263 420.453C112.052 420.668 111.946 420.92 111.946 421.209C111.946 421.494 112.052 421.742 112.263 421.953C112.478 422.16 112.78 422.322 113.171 422.439C113.562 422.553 114.017 422.609 114.536 422.609C115.056 422.609 115.513 422.553 115.907 422.439C116.302 422.322 116.605 422.16 116.816 421.953C117.03 421.742 117.138 421.494 117.138 421.209C117.138 420.92 117.03 420.668 116.816 420.453C116.605 420.238 116.302 420.074 115.907 419.961C115.513 419.848 115.056 419.791 114.536 419.791ZM121.626 425.475C121.634 424.979 121.683 424.578 121.773 424.273C121.867 423.969 121.999 423.725 122.171 423.541C122.343 423.354 122.574 423.172 122.863 422.996C123.132 422.832 123.343 422.637 123.495 422.41C123.652 422.184 123.73 421.928 123.73 421.643C123.73 421.408 123.675 421.201 123.566 421.021C123.456 420.838 123.304 420.697 123.109 420.6C122.913 420.502 122.697 420.453 122.458 420.453C122.244 420.453 122.04 420.498 121.849 420.588C121.661 420.678 121.505 420.818 121.38 421.01C121.255 421.201 121.183 421.436 121.163 421.713H119.898C119.917 421.229 120.042 420.812 120.273 420.465C120.503 420.113 120.808 419.848 121.187 419.668C121.57 419.488 121.995 419.398 122.464 419.398C122.968 419.398 123.413 419.492 123.8 419.68C124.187 419.867 124.486 420.133 124.697 420.477C124.908 420.816 125.013 421.209 125.013 421.654C125.013 422.107 124.91 422.498 124.702 422.826C124.495 423.15 124.199 423.432 123.812 423.67C123.57 423.814 123.378 423.965 123.238 424.121C123.101 424.277 122.997 424.463 122.927 424.678C122.857 424.889 122.82 425.154 122.816 425.475V425.562H121.626V425.475ZM122.259 428.082C122.111 428.082 121.972 428.043 121.843 427.965C121.714 427.887 121.613 427.785 121.538 427.66C121.468 427.531 121.433 427.393 121.433 427.244C121.433 427.1 121.468 426.963 121.538 426.834C121.613 426.705 121.714 426.605 121.843 426.535C121.972 426.461 122.111 426.424 122.259 426.424C122.404 426.424 122.54 426.461 122.669 426.535C122.798 426.605 122.9 426.705 122.974 426.834C123.048 426.963 123.085 427.1 123.085 427.244C123.085 427.393 123.048 427.531 122.974 427.66C122.9 427.785 122.798 427.887 122.669 427.965C122.54 428.043 122.404 428.082 122.259 428.082ZM3.82617 439.162C3.82617 439.963 3.70508 440.736 3.46289 441.482C3.2207 442.225 2.87891 442.883 2.4375 443.457C1.99609 444.031 1.48438 444.471 0.902344 444.775L0.205078 443.879C0.740234 443.625 1.21094 443.25 1.61719 442.754C2.02734 442.254 2.34766 441.691 2.57812 441.066C2.80859 440.438 2.92383 439.803 2.92383 439.162V437.363H3.82617V439.162ZM4.01953 439.162C4.01953 439.779 4.13086 440.389 4.35352 440.99C4.58008 441.588 4.89453 442.125 5.29688 442.602C5.69922 443.074 6.1543 443.436 6.66211 443.686L5.98242 444.576C5.41602 444.279 4.91602 443.854 4.48242 443.299C4.05273 442.744 3.7207 442.109 3.48633 441.395C3.25195 440.68 3.13477 439.936 3.13477 439.162V437.363H4.01953V439.162ZM8.56641 446.99H7.45898V436.49H8.56641V446.99ZM10.2598 441.635H8.31445V440.68H10.2598V441.635ZM13.9748 438.441C13.9748 439.086 13.8557 439.691 13.6174 440.258C13.383 440.82 13.0432 441.312 12.5979 441.734C12.1526 442.152 11.6213 442.469 11.0041 442.684L10.4416 441.799C10.9768 441.615 11.4416 441.354 11.8362 441.014C12.2346 440.67 12.5413 440.277 12.7561 439.836C12.9709 439.391 13.0784 438.926 13.0784 438.441V437.639H13.9748V438.441ZM14.1799 438.436C14.1799 438.877 14.2815 439.301 14.4846 439.707C14.6877 440.109 14.9768 440.465 15.3518 440.773C15.7307 441.078 16.1819 441.316 16.7053 441.488L16.178 442.361C15.5764 442.162 15.0588 441.869 14.6252 441.482C14.1916 441.096 13.8577 440.641 13.6233 440.117C13.3928 439.594 13.2776 439.033 13.2776 438.436V437.639H14.1799V438.436ZM16.4534 438.148H10.7639V437.246H16.4534V438.148ZM18.7678 442.795H17.6604V436.49H18.7678V442.795ZM20.2971 440.012H18.4573V439.092H20.2971V440.012ZM15.3752 443.053C16.094 443.053 16.7151 443.129 17.2385 443.281C17.7659 443.434 18.1682 443.656 18.4455 443.949C18.7229 444.242 18.8616 444.594 18.8616 445.004C18.8616 445.414 18.7229 445.766 18.4455 446.059C18.1682 446.355 17.7659 446.582 17.2385 446.738C16.7151 446.898 16.094 446.979 15.3752 446.979C14.6526 446.979 14.0256 446.898 13.4944 446.738C12.967 446.582 12.5608 446.355 12.2756 446.059C11.9944 445.766 11.8538 445.414 11.8538 445.004C11.8538 444.594 11.9944 444.242 12.2756 443.949C12.5608 443.656 12.967 443.434 13.4944 443.281C14.0256 443.129 14.6526 443.053 15.3752 443.053ZM15.3752 443.932C14.8791 443.932 14.4495 443.973 14.0862 444.055C13.7229 444.137 13.4455 444.258 13.2541 444.418C13.0666 444.578 12.9729 444.773 12.9729 445.004C12.9729 445.23 13.0666 445.428 13.2541 445.596C13.4455 445.76 13.7209 445.885 14.0803 445.971C14.4397 446.057 14.8713 446.1 15.3752 446.1C15.887 446.1 16.3205 446.057 16.676 445.971C17.0354 445.885 17.3088 445.76 17.4963 445.596C17.6838 445.428 17.7776 445.23 17.7776 445.004C17.7776 444.773 17.6838 444.578 17.4963 444.418C17.3088 444.258 17.0334 444.137 16.6702 444.055C16.3108 443.973 15.8791 443.932 15.3752 443.932ZM29.3442 442.432H28.2485V436.49H29.3442V442.432ZM22.4067 441.389H21.2876V437.111H22.4067V441.389ZM22.1606 440.791C23.1098 440.791 23.9829 440.756 24.7798 440.686C25.5766 440.611 26.3696 440.488 27.1587 440.316L27.311 441.242C26.4751 441.41 25.645 441.531 24.8208 441.605C24.0005 441.68 23.1138 441.721 22.1606 441.729H21.2876V440.791H22.1606ZM29.3442 446.855H22.4653V442.895H29.3442V446.855ZM23.5552 445.965H28.2544V443.779H23.5552V445.965ZM34.2077 437.234C34.7585 437.234 35.2488 437.342 35.6784 437.557C36.1081 437.768 36.4441 438.064 36.6863 438.447C36.9323 438.826 37.0554 439.258 37.0554 439.742C37.0554 440.227 36.9323 440.66 36.6863 441.043C36.4441 441.422 36.1081 441.719 35.6784 441.934C35.2488 442.145 34.7585 442.25 34.2077 442.25C33.6609 442.25 33.1687 442.145 32.7312 441.934C32.2937 441.719 31.9519 441.422 31.7058 441.043C31.4636 440.66 31.3425 440.227 31.3425 439.742C31.3425 439.258 31.4636 438.826 31.7058 438.447C31.9519 438.064 32.2937 437.768 32.7312 437.557C33.1687 437.342 33.6609 437.234 34.2077 437.234ZM34.2077 438.207C33.8679 438.207 33.5632 438.27 33.2937 438.395C33.028 438.52 32.8191 438.699 32.6667 438.934C32.5144 439.168 32.4382 439.438 32.4382 439.742C32.4382 440.047 32.5144 440.314 32.6667 440.545C32.8191 440.775 33.028 440.955 33.2937 441.084C33.5632 441.213 33.8679 441.277 34.2077 441.277C34.5476 441.277 34.8503 441.213 35.1159 441.084C35.3855 440.955 35.5945 440.775 35.7429 440.545C35.8952 440.314 35.9714 440.047 35.9714 439.742C35.9714 439.438 35.8952 439.168 35.7429 438.934C35.5945 438.699 35.3855 438.52 35.1159 438.395C34.8503 438.27 34.5476 438.207 34.2077 438.207ZM39.4636 447.02H38.3562V436.49H39.4636V447.02ZM30.8327 443.832C31.6999 443.828 32.4851 443.818 33.1882 443.803C33.8952 443.787 34.6452 443.756 35.4382 443.709C36.2351 443.658 36.987 443.582 37.6941 443.48L37.7761 444.295C37.0456 444.428 36.2859 444.529 35.4968 444.6C34.7116 444.666 33.9734 444.709 33.282 444.729C32.5905 444.748 31.823 444.758 30.9792 444.758L30.8327 443.832ZM47.2863 438.688C47.2863 439.324 47.1633 439.926 46.9172 440.492C46.675 441.059 46.3293 441.553 45.8801 441.975C45.4309 442.393 44.9035 442.707 44.298 442.918L43.718 442.039C44.2492 441.852 44.716 441.586 45.1184 441.242C45.5207 440.898 45.8273 440.508 46.0383 440.07C46.2531 439.629 46.3605 439.168 46.3605 438.688V437.65H47.2863V438.688ZM47.4855 438.688C47.4855 439.141 47.591 439.576 47.802 439.994C48.0168 440.412 48.3234 440.781 48.7219 441.102C49.1203 441.422 49.5852 441.664 50.1164 441.828L49.548 442.713C48.9465 442.514 48.4211 442.215 47.9719 441.816C47.5227 441.418 47.177 440.951 46.9348 440.416C46.6926 439.877 46.5715 439.301 46.5715 438.688V437.65H47.4855V438.688ZM49.8059 438.23H44.0051V437.334H49.8059V438.23ZM52.3078 444.166H51.2004V436.502H52.3078V444.166ZM52.6242 446.785H45.4465V445.865H52.6242V446.785ZM46.5598 446.293H45.4465V443.445H46.5598V446.293ZM62.1928 446.99H61.0795V436.49H62.1928V446.99ZM63.5756 441.535H61.6538V440.598H63.5756V441.535ZM55.9936 439.479C55.9936 440.205 55.9409 440.9 55.8354 441.564C55.7338 442.229 55.5541 442.846 55.2963 443.416C55.0424 443.986 54.6987 444.443 54.2651 444.787L53.5444 443.967C53.9506 443.666 54.2729 443.27 54.5112 442.777C54.7534 442.281 54.9213 441.758 55.0151 441.207C55.1127 440.652 55.1616 440.076 55.1616 439.479V438.096H55.9936V439.479ZM56.2104 439.479C56.2104 440.057 56.2495 440.621 56.3276 441.172C56.4096 441.723 56.5678 442.258 56.8022 442.777C57.0366 443.293 57.3666 443.719 57.7924 444.055L57.1596 444.869C56.7026 444.518 56.3432 444.041 56.0815 443.439C55.8198 442.838 55.642 442.201 55.5483 441.529C55.4545 440.857 55.4077 440.174 55.4077 439.479V438.096H56.2104V439.479ZM58.9174 439.479C58.9174 440.197 58.8686 440.895 58.7709 441.57C58.6772 442.242 58.5014 442.873 58.2436 443.463C57.9858 444.053 57.6245 444.521 57.1596 444.869L56.5561 444.055C56.9702 443.727 57.2924 443.309 57.5229 442.801C57.7573 442.289 57.9155 441.754 57.9975 441.195C58.0834 440.637 58.1264 440.064 58.1264 439.479V438.096H58.9174V439.479ZM59.1811 439.479C59.1811 440.092 59.228 440.676 59.3217 441.23C59.4155 441.785 59.5815 442.305 59.8198 442.789C60.058 443.273 60.3842 443.666 60.7983 443.967L60.0776 444.787C59.644 444.447 59.3002 443.994 59.0463 443.428C58.7924 442.861 58.6127 442.248 58.5073 441.588C58.4057 440.924 58.3549 440.221 58.3549 439.479V438.096H59.1811V439.479ZM56.9487 438.424H53.9077V437.51H56.9487V438.424ZM60.312 438.424H57.3823V437.51H60.312V438.424ZM74.8027 442.098H73.6952V436.49H74.8027V442.098ZM76.332 439.818H74.4921V438.893H76.332V439.818ZM67.8534 440.861C69.0292 440.861 69.955 440.84 70.6308 440.797C71.3066 440.75 71.9745 440.658 72.6347 440.521L72.7695 441.424C72.078 441.564 71.3788 441.66 70.6718 441.711C69.9687 441.758 69.0292 441.781 67.8534 441.781H67.0155V440.861H67.8534ZM71.6855 438.072H68.123V441.482H67.0155V437.17H71.6855V438.072ZM69.1777 443.844H73.6952V442.643H74.8027V446.832H68.0702V442.643H69.1777V443.844ZM73.6952 445.924V444.723H69.1777V445.924H73.6952ZM84.7228 439.291H81.7873V438.371H84.7228V439.291ZM84.7638 441.529H81.7873V440.621H84.7638V441.529ZM85.4377 444.266H84.3244V436.502H85.4377V444.266ZM85.672 446.785H78.5763V445.865H85.672V446.785ZM79.7013 446.346H78.5763V443.498H79.7013V446.346ZM78.2951 438.975H80.9318V437.199H82.0275V442.52H77.1877V437.199H78.2951V438.975ZM80.9318 441.617V439.842H78.2951V441.617H80.9318ZM91.602 436.666C92.391 436.666 93.0648 436.736 93.6234 436.877C94.182 437.014 94.6078 437.217 94.9008 437.486C95.1977 437.756 95.3461 438.082 95.3461 438.465C95.3461 438.855 95.1977 439.188 94.9008 439.461C94.6078 439.73 94.182 439.936 93.6234 440.076C93.0648 440.217 92.391 440.291 91.602 440.299C90.8129 440.291 90.1371 440.217 89.5746 440.076C89.016 439.936 88.5863 439.73 88.2855 439.461C87.9887 439.188 87.8402 438.855 87.8402 438.465C87.8402 438.082 87.9887 437.756 88.2855 437.486C88.5863 437.217 89.016 437.014 89.5746 436.877C90.1371 436.736 90.8129 436.666 91.602 436.666ZM91.602 437.492C91.0473 437.492 90.5746 437.529 90.184 437.604C89.7973 437.678 89.5043 437.789 89.3051 437.938C89.1059 438.086 89.0062 438.262 89.0062 438.465C89.0062 438.688 89.1039 438.873 89.2992 439.021C89.4945 439.166 89.7855 439.275 90.1723 439.35C90.559 439.424 91.0355 439.461 91.602 439.461C92.1684 439.461 92.6449 439.424 93.0316 439.35C93.4184 439.275 93.7094 439.164 93.9047 439.016C94.1039 438.863 94.2035 438.68 94.2035 438.465C94.2035 438.262 94.102 438.088 93.8988 437.943C93.6996 437.799 93.4047 437.688 93.0141 437.609C92.6273 437.531 92.1566 437.492 91.602 437.492ZM96.3891 441.828H86.8148V440.938H96.3891V441.828ZM95.1762 445.098H89.0707V446.264H87.975V444.295H94.0863V443.469H87.9574V442.637H95.1762V445.098ZM95.4809 446.891H87.975V446.029H95.4809V446.891ZM109.222 442.285H99.6356V441.354H109.222V442.285ZM108.126 440.363H100.854V439.467H108.126V440.363ZM108.015 437.721H101.968V439.994H100.854V436.795H108.015V437.721ZM108.167 446.855H100.831V445.947H108.167V446.855ZM108.073 444.189H101.933V446.463H100.831V443.287H108.073V444.189ZM117.566 438.406H110.775V437.504H117.566V438.406ZM119.341 445.572H109.767V444.658H119.341V445.572ZM114.507 445.133H113.411V440.955H114.507V445.133ZM118.263 438.535C118.263 439.156 118.255 439.678 118.239 440.1C118.224 440.518 118.189 441.014 118.134 441.588C118.079 442.158 117.991 442.775 117.87 443.439L116.739 443.316C116.868 442.688 116.962 442.094 117.021 441.535C117.079 440.977 117.114 440.482 117.126 440.053C117.142 439.619 117.15 439.113 117.15 438.535V437.504H118.263V438.535ZM131.295 442.332H130.187V436.502H131.295V442.332ZM126.197 437.908C126.197 438.549 126.074 439.152 125.828 439.719C125.582 440.285 125.232 440.777 124.779 441.195C124.326 441.613 123.791 441.926 123.173 442.133L122.623 441.254C123.162 441.07 123.63 440.809 124.029 440.469C124.431 440.129 124.738 439.738 124.949 439.297C125.164 438.852 125.271 438.389 125.271 437.908V436.883H126.197V437.908ZM126.414 437.908C126.414 438.365 126.519 438.805 126.73 439.227C126.941 439.645 127.242 440.016 127.632 440.34C128.027 440.66 128.49 440.902 129.021 441.066L128.488 441.951C127.875 441.748 127.341 441.449 126.888 441.055C126.439 440.66 126.091 440.193 125.845 439.654C125.599 439.115 125.476 438.533 125.476 437.908V436.883H126.414V437.908ZM131.365 443.797H124.252V442.906H131.365V443.797ZM131.464 446.861H124.158V445.959H131.464V446.861ZM126.754 446.498H125.658V443.258H126.754V446.498ZM129.982 446.498H128.875V443.258H129.982V446.498ZM135.566 437.281C136.082 437.281 136.539 437.434 136.937 437.738C137.34 438.043 137.654 438.473 137.881 439.027C138.107 439.582 138.221 440.229 138.221 440.967C138.221 441.709 138.107 442.357 137.881 442.912C137.654 443.467 137.34 443.896 136.937 444.201C136.539 444.502 136.082 444.652 135.566 444.652C135.051 444.652 134.59 444.502 134.183 444.201C133.781 443.9 133.467 443.473 133.24 442.918C133.014 442.359 132.9 441.709 132.9 440.967C132.9 440.229 133.014 439.582 133.24 439.027C133.467 438.473 133.781 438.043 134.183 437.738C134.59 437.434 135.051 437.281 135.566 437.281ZM135.566 438.277C135.254 438.277 134.974 438.387 134.728 438.605C134.482 438.824 134.293 439.137 134.16 439.543C134.031 439.945 133.967 440.42 133.967 440.967C133.967 441.51 134.031 441.984 134.16 442.391C134.293 442.797 134.482 443.109 134.728 443.328C134.974 443.543 135.254 443.65 135.566 443.65C135.879 443.65 136.158 443.543 136.404 443.328C136.65 443.109 136.84 442.797 136.973 442.391C137.105 441.984 137.172 441.51 137.172 440.967C137.172 440.42 137.103 439.945 136.967 439.543C136.834 439.137 136.646 438.824 136.404 438.605C136.166 438.387 135.887 438.277 135.566 438.277ZM141.478 447.02H140.371V436.49H141.478V447.02ZM140.857 441.342H137.869V440.434H140.857V441.342ZM151.059 440.885H148.158V439.988H151.059V440.885ZM146.424 439.162C146.424 439.967 146.303 440.744 146.061 441.494C145.818 442.24 145.477 442.902 145.035 443.48C144.594 444.059 144.082 444.502 143.5 444.811L142.791 443.908C143.326 443.654 143.799 443.279 144.209 442.783C144.623 442.283 144.943 441.717 145.17 441.084C145.397 440.451 145.51 439.811 145.51 439.162V437.363H146.424V439.162ZM146.641 439.162C146.641 439.807 146.752 440.434 146.975 441.043C147.201 441.648 147.516 442.188 147.918 442.66C148.324 443.129 148.789 443.482 149.313 443.721L148.645 444.623C148.059 444.322 147.547 443.896 147.109 443.346C146.676 442.791 146.338 442.154 146.096 441.436C145.857 440.713 145.738 439.955 145.738 439.162V437.363H146.641V439.162ZM151.609 447.02H150.502V436.49H151.609V447.02ZM156.649 445.273H155.535V442.473H156.649V445.273ZM160.024 445.273H158.916V442.473H160.024V445.273ZM162.59 445.725H152.981V444.805H162.59V445.725ZM158.137 438.307C158.137 439.006 157.942 439.654 157.551 440.252C157.164 440.85 156.645 441.352 155.992 441.758C155.34 442.16 154.635 442.436 153.877 442.584L153.426 441.688C154.078 441.582 154.694 441.363 155.272 441.031C155.85 440.695 156.313 440.289 156.66 439.812C157.012 439.332 157.188 438.83 157.188 438.307V437.744H158.137V438.307ZM158.348 438.307C158.348 438.83 158.524 439.33 158.875 439.807C159.231 440.279 159.701 440.68 160.287 441.008C160.877 441.332 161.504 441.547 162.168 441.652L161.723 442.543C160.95 442.395 160.233 442.121 159.573 441.723C158.916 441.324 158.393 440.83 158.002 440.24C157.616 439.65 157.422 439.006 157.422 438.307V437.744H158.348V438.307ZM161.764 438.289H153.772V437.381H161.764V438.289Z" fill="#99A1AA"/>
<path d="M13.8867 478.661H11.6455V462.604H13.8867V478.661ZM2.76855 473.062C4.26855 473.068 5.62207 473.033 6.8291 472.957C8.03613 472.875 9.26074 472.734 10.5029 472.535L10.7051 474.346C9.47461 474.562 8.24707 474.712 7.02246 474.794C5.80371 474.87 4.38574 474.908 2.76855 474.908H1.33594V473.062H2.76855ZM8.9209 470.118H3.64746V473.766H1.33594V468.36H6.63574V465.768H1.31836V463.957H8.9209V470.118ZM29.4964 478.617H27.3871V462.604H29.4964V478.617ZM27.8968 470.593H25.181V468.8H27.8968V470.593ZM25.8402 477.844H23.7836V462.894H25.8402V477.844ZM17.2445 473.124C18.4105 473.124 19.4154 473.098 20.2591 473.045C21.1029 472.992 21.9642 472.887 22.8431 472.729L23.0013 474.548C22.1048 474.718 21.223 474.835 20.3558 474.899C19.4886 474.958 18.4515 474.99 17.2445 474.996H16.1195V473.124H17.2445ZM22.0961 466.277H18.3695V474.029H16.1195V464.476H22.0961V466.277ZM44.28 478.661H42.0388V462.604H44.28V478.661ZM33.1618 473.062C34.6618 473.068 36.0154 473.033 37.2224 472.957C38.4294 472.875 39.654 472.734 40.8962 472.535L41.0984 474.346C39.8679 474.562 38.6404 474.712 37.4157 474.794C36.197 474.87 34.779 474.908 33.1618 474.908H31.7292V473.062H33.1618ZM39.3142 470.118H34.0407V473.766H31.7292V468.36H37.029V465.768H31.7116V463.957H39.3142V470.118Z" fill="#2B91FF"/>
<path d="M51.9708 474.486H49.7384V470.707H51.9708V474.486ZM50.837 463.57C51.6514 463.57 52.3897 463.737 53.0518 464.071C53.7198 464.405 54.2471 464.871 54.6339 465.469C55.0264 466.061 55.2227 466.734 55.2227 467.49C55.2227 468.246 55.0264 468.923 54.6339 469.521C54.2471 470.112 53.7198 470.575 53.0518 470.909C52.3897 471.237 51.6514 471.401 50.837 471.401C49.9991 471.401 49.2462 471.237 48.5782 470.909C47.9102 470.575 47.3858 470.112 47.005 469.521C46.63 468.923 46.4425 468.246 46.4425 467.49C46.4425 466.734 46.63 466.061 47.005 465.469C47.3858 464.871 47.9102 464.405 48.5782 464.071C49.2462 463.737 49.9991 463.57 50.837 463.57ZM50.837 465.469C50.4093 465.469 50.0284 465.551 49.6944 465.715C49.3663 465.873 49.1055 466.104 48.9122 466.409C48.7247 466.714 48.6309 467.074 48.6309 467.49C48.6309 467.9 48.7247 468.258 48.9122 468.562C49.1055 468.867 49.3692 469.102 49.7032 469.266C50.0372 469.43 50.4151 469.512 50.837 469.512C51.2471 469.512 51.6163 469.43 51.9444 469.266C52.2725 469.102 52.5303 468.867 52.7178 468.562C52.9112 468.258 53.0079 467.9 53.0079 467.49C53.0079 467.074 52.9112 466.717 52.7178 466.418C52.5303 466.113 52.2725 465.879 51.9444 465.715C51.6221 465.551 51.253 465.469 50.837 465.469ZM58.7735 478.617H56.5323V462.604H58.7735V478.617ZM60.9444 470.777H58.088V468.888H60.9444V470.777ZM45.88 473.59C47.3507 473.584 48.543 473.575 49.4571 473.563C50.377 473.552 51.3966 473.517 52.5157 473.458C53.6407 473.394 54.6954 473.294 55.6798 473.159L55.8204 474.812C54.795 475.005 53.7257 475.148 52.6124 475.242C51.4991 475.33 50.4444 475.383 49.4483 475.4C48.4522 475.412 47.3624 475.415 46.1788 475.409L45.88 473.59ZM77.7586 472.271H75.5174V462.604H77.7586V472.271ZM79.9207 468.431H77.1258V466.567H79.9207V468.431ZM77.7586 478.441H67.2996V472.975H77.7586V478.441ZM69.5232 476.64H75.5437V474.732H69.5232V476.64ZM74.5594 465.847H65.0584V464.071H74.5594V465.847ZM69.8221 466.321C70.5896 466.321 71.2693 466.444 71.8611 466.69C72.4588 466.931 72.9246 467.268 73.2586 467.701C73.5926 468.135 73.7596 468.636 73.7596 469.204C73.7596 469.772 73.5926 470.276 73.2586 470.716C72.9246 471.149 72.4588 471.489 71.8611 471.735C71.2693 471.976 70.5896 472.096 69.8221 472.096C69.0428 472.096 68.3514 471.976 67.7478 471.735C67.1502 471.489 66.6844 471.149 66.3504 470.716C66.0164 470.276 65.8494 469.772 65.8494 469.204C65.8494 468.636 66.0164 468.135 66.3504 467.701C66.6844 467.268 67.1502 466.931 67.7478 466.69C68.3514 466.444 69.0428 466.321 69.8221 466.321ZM69.8221 468.009C69.4588 468.009 69.1424 468.056 68.8728 468.149C68.6033 468.237 68.3953 468.372 68.2488 468.554C68.1023 468.729 68.0291 468.946 68.0291 469.204C68.0291 469.468 68.1023 469.693 68.2488 469.881C68.3953 470.062 68.6033 470.2 68.8728 470.294C69.1424 470.388 69.4588 470.438 69.8221 470.443C70.1853 470.438 70.5018 470.388 70.7713 470.294C71.0408 470.2 71.2518 470.062 71.4041 469.881C71.5564 469.693 71.6326 469.468 71.6326 469.204C71.6326 468.946 71.5535 468.729 71.3953 468.554C71.243 468.372 71.032 468.237 70.7625 468.149C70.493 468.056 70.1795 468.009 69.8221 468.009ZM70.9383 465.029H68.6971V462.524H70.9383V465.029ZM84.2013 464.458C84.2013 465.929 84.1339 467.268 83.9992 468.475C83.8644 469.682 83.6183 470.851 83.2609 471.981C82.9093 473.112 82.4084 474.185 81.758 475.198L80.0177 474.275C80.6447 473.338 81.1193 472.383 81.4416 471.41C81.7697 470.438 81.9923 469.424 82.1095 468.369C82.2326 467.314 82.2941 466.075 82.2941 464.651V464.458H84.2013ZM83.4894 466.26H80.5451V464.458H83.4894V466.26ZM87.7785 464.458C87.7785 466.081 87.7257 467.522 87.6203 468.782C87.5148 470.036 87.2834 471.281 86.9259 472.518C86.5685 473.754 86.0412 474.911 85.3439 475.989L83.6388 475.058C84.2951 474.05 84.7843 473.007 85.1066 471.929C85.4289 470.851 85.6398 469.764 85.7394 468.668C85.839 467.566 85.8888 466.228 85.8888 464.651V464.458H87.7785ZM87.1457 466.26H84.6671V464.458H87.1457V466.26ZM94.2648 478.617H92.1115V462.604H94.2648V478.617ZM89.3429 470.417H87.005V468.624H89.3429V470.417ZM91.1007 477.914H89.0002V462.981H91.1007V477.914ZM101.332 472.957C102.844 472.957 104.109 472.925 105.129 472.86C106.148 472.79 107.162 472.661 108.17 472.474L108.407 474.284C107.364 474.489 106.318 474.627 105.269 474.697C104.226 474.768 102.914 474.8 101.332 474.794H100.022V472.957H101.332ZM107.326 465.847H102.281V473.643H100.022V464.019H107.326V465.847ZM112.784 478.661H110.543V462.604H112.784V478.661ZM111.501 469.986H106.535V468.158H111.501V469.986ZM123.701 466.972C123.701 468.196 123.528 469.386 123.182 470.54C122.837 471.688 122.324 472.711 121.644 473.607C120.964 474.498 120.153 475.166 119.21 475.611L117.891 473.845C118.758 473.44 119.491 472.869 120.088 472.131C120.692 471.393 121.149 470.578 121.46 469.688C121.77 468.797 121.925 467.892 121.925 466.972V465.108H123.701V466.972ZM124.175 466.972C124.175 467.815 124.322 468.659 124.615 469.503C124.914 470.341 125.356 471.111 125.942 471.814C126.534 472.512 127.252 473.054 128.095 473.44L126.847 475.198C125.91 474.771 125.107 474.129 124.439 473.273C123.771 472.418 123.264 471.445 122.919 470.355C122.573 469.26 122.4 468.132 122.4 466.972V465.108H124.175V466.972ZM127.401 465.996H118.533V464.168H127.401V465.996ZM130.89 478.617H128.64V462.604H130.89V478.617ZM133.263 470.602H130.398V468.729H133.263V470.602ZM145.516 466.673H140.769V464.871H145.516V466.673ZM145.516 470.54H140.769V468.747H145.516V470.54ZM146.948 474.337H144.716V462.639H146.948V474.337ZM147.335 478.345H136.331V476.534H147.335V478.345ZM138.581 477.457H136.331V473.15H138.581V477.457ZM137.931 463.562C138.71 463.562 139.419 463.743 140.058 464.106C140.702 464.464 141.215 464.959 141.596 465.592C141.977 466.219 142.167 466.928 142.167 467.719C142.167 468.498 141.977 469.201 141.596 469.828C141.215 470.455 140.702 470.95 140.058 471.313C139.413 471.671 138.704 471.85 137.931 471.85C137.128 471.85 136.401 471.671 135.751 471.313C135.106 470.95 134.597 470.455 134.222 469.828C133.852 469.201 133.668 468.498 133.668 467.719C133.668 466.928 133.852 466.216 134.222 465.583C134.597 464.95 135.106 464.455 135.751 464.098C136.401 463.74 137.128 463.562 137.931 463.562ZM137.931 465.557C137.515 465.551 137.145 465.636 136.823 465.812C136.501 465.981 136.249 466.23 136.067 466.559C135.886 466.887 135.795 467.273 135.795 467.719C135.795 468.152 135.886 468.53 136.067 468.853C136.249 469.175 136.501 469.424 136.823 469.6C137.145 469.77 137.515 469.857 137.931 469.863C138.323 469.857 138.678 469.77 138.994 469.6C139.316 469.424 139.568 469.175 139.75 468.853C139.932 468.53 140.022 468.152 140.022 467.719C140.022 467.273 139.932 466.887 139.75 466.559C139.568 466.23 139.316 465.981 138.994 465.812C138.678 465.636 138.323 465.551 137.931 465.557ZM156.66 464.722C156.66 465.882 156.388 466.969 155.843 467.982C155.298 468.996 154.522 469.863 153.514 470.584C152.512 471.299 151.337 471.791 149.99 472.061L149.032 470.197C150.18 469.98 151.182 469.591 152.037 469.028C152.899 468.466 153.555 467.807 154.006 467.051C154.463 466.295 154.692 465.519 154.692 464.722V463.579H156.66V464.722ZM157.074 464.722C157.074 465.524 157.299 466.307 157.75 467.068C158.207 467.83 158.867 468.492 159.728 469.055C160.595 469.611 161.609 469.992 162.769 470.197L161.784 472.061C160.449 471.791 159.277 471.302 158.269 470.593C157.267 469.884 156.496 469.022 155.957 468.009C155.418 466.995 155.149 465.899 155.149 464.722V463.579H157.074V464.722ZM163.296 476.657H148.671V474.82H163.296V476.657ZM177.341 471.48H175.109V462.639H177.341V471.48ZM175.566 467.525H172.525V465.697H175.566V467.525ZM168.807 473.59H175.118V472.131H177.341V478.441H166.592V472.131H168.807V473.59ZM175.118 476.64V475.304H168.807V476.64H175.118ZM165.784 469.397C167.36 469.397 168.67 469.368 169.713 469.31C170.756 469.245 171.804 469.134 172.859 468.976L173.035 470.786C171.951 470.95 170.867 471.062 169.783 471.12C168.699 471.173 167.366 471.196 165.784 471.19H164.483V469.397H165.784ZM171.708 467.991H166.707V471.067H164.483V466.339H169.528V464.994H164.457V463.219H171.708V467.991ZM190.807 465.776H180.559V464.001H190.807V465.776ZM193.654 476.657H179.064V474.838H193.654V476.657ZM186.509 475.77H184.285V469.336H186.509V475.77ZM192.231 465.521C192.231 466.459 192.219 467.259 192.195 467.921C192.172 468.577 192.116 469.356 192.028 470.259C191.94 471.155 191.8 472.128 191.606 473.177L189.33 472.939C189.535 471.961 189.685 471.038 189.778 470.171C189.872 469.298 189.928 468.527 189.945 467.859C189.969 467.186 189.981 466.406 189.981 465.521V464.001H192.231V465.521ZM14.3438 506.617H12.1904V490.604H14.3438V506.617ZM12.9023 498.549H10.1953V496.729H12.9023V498.549ZM10.749 505.879H8.63965V490.85H10.749V505.879ZM7.28613 502.601H0.922852V492.273H7.28613V502.601ZM3.02344 500.834H5.19434V494.04H3.02344V500.834ZM20.558 493.891H16.7259V492.098H20.558V493.891ZM30.2699 504.394H15.68V502.565H30.2699V504.394ZM22.1048 492.985C22.0931 493.888 22.0726 494.658 22.0433 495.297C22.014 495.936 21.9144 496.759 21.7445 497.767C21.5746 498.774 21.308 499.914 20.9447 501.186L18.7386 500.834C19.0843 499.697 19.3421 498.646 19.5121 497.679C19.682 496.706 19.7845 495.877 19.8197 495.191C19.8548 494.506 19.8724 493.771 19.8724 492.985V492.098H22.1048V492.985ZM27.308 493.891H23.1244V492.098H27.308V493.891ZM28.7845 493.24C28.7845 494.131 28.7757 494.904 28.7582 495.561C28.7406 496.211 28.682 497.017 28.5824 497.978C28.4886 498.938 28.3334 499.996 28.1166 501.15L25.8666 500.931C26.0716 499.847 26.224 498.836 26.3236 497.898C26.4291 496.961 26.4906 496.164 26.5082 495.508C26.5316 494.852 26.5463 494.096 26.5521 493.24V492.098H28.7845V493.24ZM44.3415 506.661H42.1179V490.604H44.3415V506.661ZM42.5749 498.215H39.5427V496.387H42.5749V498.215ZM32.7488 501.071C34.2898 501.071 35.5818 501.045 36.6247 500.992C37.6736 500.934 38.7312 500.811 39.7976 500.623L39.9734 502.451C38.8718 502.633 37.7644 502.759 36.6511 502.829C35.5437 502.894 34.2429 502.929 32.7488 502.935H31.4304V501.071H32.7488ZM38.6462 497.96H33.6716V501.66H31.4304V496.176H36.4489V493.768H31.3952V491.957H38.6462V497.96ZM60.6807 500.192H46.0557V498.417H60.6807V500.192ZM54.6339 502.979H52.3575V499.586H54.6339V502.979ZM59.0723 506.345H47.796V504.517H59.0723V506.345ZM50.0548 505.009H47.796V501.546H50.0548V505.009ZM53.3595 490.92C54.5137 490.92 55.5245 491.058 56.3917 491.333C57.2647 491.608 57.9415 491.995 58.422 492.493C58.9024 492.991 59.1427 493.577 59.1427 494.251C59.1427 494.913 58.9024 495.493 58.422 495.991C57.9415 496.483 57.2647 496.864 56.3917 497.134C55.5245 497.403 54.5137 497.538 53.3595 497.538C52.211 497.538 51.1973 497.403 50.3184 497.134C49.4395 496.864 48.7569 496.483 48.2706 495.991C47.7901 495.493 47.5499 494.913 47.5499 494.251C47.5499 493.577 47.7901 492.991 48.2706 492.493C48.7569 491.995 49.4395 491.608 50.3184 491.333C51.1973 491.058 52.211 490.92 53.3595 490.92ZM53.3595 492.695C52.668 492.695 52.0675 492.754 51.5577 492.871C51.0538 492.988 50.6641 493.164 50.3887 493.398C50.1192 493.627 49.9845 493.911 49.9845 494.251C49.9845 494.567 50.1192 494.837 50.3887 495.06C50.6641 495.282 51.0538 495.452 51.5577 495.569C52.0675 495.687 52.668 495.745 53.3595 495.745C54.0567 495.745 54.6573 495.687 55.1612 495.569C55.6651 495.452 56.0518 495.282 56.3214 495.06C56.5909 494.837 56.7257 494.567 56.7257 494.251C56.7257 493.911 56.5909 493.627 56.3214 493.398C56.0518 493.164 55.6651 492.988 55.1612 492.871C54.6573 492.754 54.0567 492.695 53.3595 492.695ZM76.8182 493.776H66.5701V492.001H76.8182V493.776ZM79.6658 504.657H65.076V502.838H79.6658V504.657ZM72.5203 503.77H70.2967V497.336H72.5203V503.77ZM78.242 493.521C78.242 494.459 78.2303 495.259 78.2068 495.921C78.1834 496.577 78.1277 497.356 78.0398 498.259C77.952 499.155 77.8113 500.128 77.618 501.177L75.3416 500.939C75.5467 499.961 75.6961 499.038 75.7898 498.171C75.8836 497.298 75.9393 496.527 75.9568 495.859C75.9803 495.186 75.992 494.406 75.992 493.521V492.001H78.242V493.521ZM94.0099 499.999H91.8742V490.639H94.0099V499.999ZM92.4806 496.132H89.8527V494.312H92.4806V496.132ZM90.4503 499.929H88.3322V490.911H90.4503V499.929ZM94.0099 506.617H91.7863V502.425H82.8478V500.614H94.0099V506.617ZM87.2336 491.72C87.2453 493.067 87.0314 494.271 86.5919 495.332C86.1525 496.387 85.4816 497.312 84.5793 498.109C83.6828 498.9 82.5373 499.571 81.1427 500.122L80.0793 498.443C81.2277 498.027 82.1652 497.532 82.8918 496.958C83.6242 496.384 84.1632 495.73 84.5089 494.998C84.8546 494.266 85.0275 493.454 85.0275 492.563V491.72H87.2336ZM85.7394 493.521H80.8615V491.72H85.7394V493.521ZM113.865 499.867H99.2753V498.109H113.865V499.867ZM106.544 500.772C107.704 500.767 108.7 500.875 109.532 501.098C110.364 501.32 111.003 501.651 111.448 502.091C111.893 502.53 112.116 503.066 112.116 503.699C112.116 504.32 111.893 504.851 111.448 505.29C111.003 505.729 110.364 506.063 109.532 506.292C108.7 506.521 107.704 506.635 106.544 506.635C105.378 506.635 104.376 506.521 103.538 506.292C102.7 506.063 102.056 505.729 101.604 505.29C101.159 504.851 100.936 504.32 100.936 503.699C100.936 503.066 101.159 502.53 101.604 502.091C102.05 501.651 102.691 501.32 103.529 501.098C104.373 500.875 105.378 500.767 106.544 500.772ZM106.544 502.46C105.8 502.46 105.182 502.504 104.689 502.592C104.203 502.674 103.837 502.809 103.591 502.996C103.345 503.184 103.222 503.418 103.222 503.699C103.222 503.975 103.345 504.203 103.591 504.385C103.837 504.561 104.203 504.695 104.689 504.789C105.182 504.877 105.8 504.921 106.544 504.921C107.276 504.921 107.889 504.877 108.381 504.789C108.873 504.695 109.242 504.558 109.488 504.376C109.734 504.194 109.857 503.969 109.857 503.699C109.857 503.418 109.734 503.184 109.488 502.996C109.242 502.809 108.873 502.674 108.381 502.592C107.889 502.504 107.276 502.46 106.544 502.46ZM106.561 490.964C107.733 490.964 108.756 491.09 109.629 491.342C110.508 491.588 111.184 491.948 111.659 492.423C112.134 492.897 112.371 493.454 112.371 494.093C112.371 494.737 112.134 495.297 111.659 495.771C111.184 496.24 110.508 496.601 109.629 496.853C108.756 497.099 107.733 497.222 106.561 497.222C105.39 497.222 104.364 497.099 103.485 496.853C102.606 496.601 101.927 496.24 101.446 495.771C100.966 495.297 100.725 494.737 100.725 494.093C100.725 493.454 100.966 492.897 101.446 492.423C101.927 491.948 102.606 491.588 103.485 491.342C104.364 491.09 105.39 490.964 106.561 490.964ZM106.561 492.713C105.811 492.707 105.176 492.754 104.654 492.854C104.133 492.953 103.734 493.108 103.459 493.319C103.189 493.53 103.055 493.788 103.055 494.093C103.055 494.397 103.189 494.655 103.459 494.866C103.734 495.071 104.13 495.227 104.645 495.332C105.167 495.438 105.806 495.49 106.561 495.49C107.311 495.49 107.944 495.438 108.46 495.332C108.975 495.227 109.371 495.071 109.646 494.866C109.922 494.655 110.059 494.397 110.059 494.093C110.059 493.788 109.925 493.53 109.655 493.319C109.386 493.108 108.99 492.953 108.469 492.854C107.947 492.754 107.311 492.707 106.561 492.713ZM128.288 506.617H126.179V490.604H128.288V506.617ZM126.689 498.593H123.973V496.8H126.689V498.593ZM124.632 505.844H122.575V490.894H124.632V505.844ZM116.036 501.124C117.202 501.124 118.207 501.098 119.051 501.045C119.895 500.992 120.756 500.887 121.635 500.729L121.793 502.548C120.897 502.718 120.015 502.835 119.148 502.899C118.281 502.958 117.243 502.99 116.036 502.996H114.911V501.124H116.036ZM120.888 494.277H117.161V502.029H114.911V492.476H120.888V494.277ZM144.276 499.454H129.651V497.784H144.276V499.454ZM142.536 504.024H133.562V505.431H131.321V502.609H140.312V501.81H131.312V500.245H142.536V504.024ZM142.993 506.468H131.321V504.938H142.993V506.468ZM142.509 494.664H133.703V496H131.47V493.24H140.259V492.432H131.444V490.902H142.509V494.664ZM142.782 497.037H131.47V495.525H142.782V497.037ZM160.273 494.972H156.432V493.205H160.273V494.972ZM160.141 498.294H156.318V496.492H160.141V498.294ZM162.145 499.85H159.912V490.639H162.145V499.85ZM157.038 491.702C157.038 493.144 156.763 494.421 156.212 495.534C155.661 496.647 154.841 497.591 153.751 498.364C152.661 499.138 151.305 499.747 149.682 500.192L148.803 498.426C150.139 498.074 151.241 497.62 152.108 497.063C152.975 496.507 153.614 495.868 154.024 495.147C154.44 494.427 154.648 493.642 154.648 492.792V491.702H157.038ZM156.203 493.513H149.656V491.702H156.203V493.513ZM156.81 500.043C157.894 500.043 158.846 500.178 159.666 500.447C160.492 500.711 161.131 501.086 161.582 501.572C162.034 502.053 162.259 502.624 162.259 503.286C162.259 503.942 162.034 504.517 161.582 505.009C161.131 505.507 160.492 505.888 159.666 506.151C158.846 506.415 157.894 506.547 156.81 506.547C155.726 506.547 154.771 506.415 153.945 506.151C153.124 505.888 152.486 505.507 152.029 505.009C151.577 504.517 151.352 503.942 151.352 503.286C151.352 502.624 151.577 502.053 152.029 501.572C152.486 501.086 153.124 500.711 153.945 500.447C154.771 500.178 155.726 500.043 156.81 500.043ZM156.81 501.792C156.142 501.78 155.565 501.833 155.078 501.95C154.592 502.062 154.223 502.231 153.971 502.46C153.719 502.683 153.593 502.958 153.593 503.286C153.593 503.608 153.719 503.881 153.971 504.104C154.223 504.326 154.589 504.493 155.07 504.604C155.55 504.716 156.13 504.771 156.81 504.771C157.484 504.771 158.058 504.716 158.533 504.604C159.013 504.493 159.379 504.326 159.631 504.104C159.889 503.881 160.018 503.608 160.018 503.286C160.018 502.958 159.889 502.683 159.631 502.46C159.379 502.231 159.013 502.062 158.533 501.95C158.058 501.833 157.484 501.78 156.81 501.792ZM177.341 500.289H175.109V490.604H177.341V500.289ZM176.023 497.143H173.035V495.314H176.023V497.143ZM177.341 506.441H166.592V500.975H177.341V506.441ZM168.834 504.64H175.153V502.732H168.834V504.64ZM173.325 493.803H163.894V492.019H173.325V493.803ZM168.614 494.321C169.358 494.321 170.023 494.444 170.609 494.69C171.195 494.937 171.649 495.279 171.971 495.719C172.299 496.152 172.464 496.647 172.464 497.204C172.464 497.772 172.299 498.273 171.971 498.707C171.649 499.141 171.195 499.48 170.609 499.727C170.023 499.973 169.358 500.096 168.614 500.096C167.882 500.096 167.222 499.976 166.636 499.735C166.056 499.489 165.599 499.146 165.265 498.707C164.937 498.268 164.773 497.767 164.773 497.204C164.773 496.647 164.937 496.149 165.265 495.71C165.599 495.271 166.056 494.931 166.636 494.69C167.222 494.444 167.882 494.321 168.614 494.321ZM168.614 496.009C168.268 496.009 167.969 496.056 167.717 496.149C167.466 496.237 167.269 496.372 167.129 496.554C166.988 496.735 166.918 496.952 166.918 497.204C166.918 497.462 166.985 497.685 167.12 497.872C167.26 498.054 167.457 498.194 167.709 498.294C167.966 498.388 168.268 498.438 168.614 498.443C168.96 498.438 169.258 498.388 169.51 498.294C169.762 498.194 169.956 498.054 170.091 497.872C170.231 497.685 170.301 497.462 170.301 497.204C170.301 496.952 170.231 496.735 170.091 496.554C169.956 496.372 169.759 496.237 169.502 496.149C169.25 496.056 168.954 496.009 168.614 496.009ZM169.721 493.311H167.498V490.489H169.721V493.311ZM186.773 494.84H179.029V493.056H186.773V494.84ZM182.932 495.561C183.611 495.561 184.218 495.722 184.751 496.044C185.284 496.366 185.7 496.814 185.999 497.389C186.298 497.963 186.447 498.619 186.447 499.357C186.447 500.096 186.298 500.755 185.999 501.335C185.7 501.909 185.284 502.36 184.751 502.688C184.218 503.017 183.611 503.181 182.932 503.181C182.258 503.181 181.654 503.017 181.121 502.688C180.588 502.36 180.169 501.906 179.864 501.326C179.565 500.746 179.416 500.09 179.416 499.357C179.416 498.631 179.565 497.978 179.864 497.397C180.169 496.817 180.588 496.366 181.121 496.044C181.654 495.722 182.258 495.561 182.932 495.561ZM182.932 497.424C182.633 497.418 182.363 497.494 182.123 497.652C181.889 497.805 181.707 498.027 181.578 498.32C181.455 498.613 181.394 498.959 181.394 499.357C181.394 499.75 181.458 500.093 181.587 500.386C181.716 500.673 181.898 500.893 182.132 501.045C182.366 501.197 182.633 501.273 182.932 501.273C183.236 501.273 183.503 501.197 183.731 501.045C183.966 500.893 184.15 500.673 184.285 500.386C184.42 500.093 184.487 499.75 184.487 499.357C184.487 498.959 184.42 498.613 184.285 498.32C184.15 498.027 183.966 497.805 183.731 497.652C183.503 497.494 183.236 497.418 182.932 497.424ZM192.89 506.617H190.754V490.604H192.89V506.617ZM191.466 498.918H188.776V497.134H191.466V498.918ZM189.462 505.932H187.361V490.938H189.462V505.932ZM184.03 494.181H181.824V491.061H184.03V494.181ZM212.692 504.754H198.067V502.943H212.692V504.754ZM206.452 503.392H204.246V499.472H206.452V503.392ZM201.864 494.128H208.834V491.632H211.066V499.973H199.614V491.632H201.864V494.128ZM208.834 498.18V495.903H201.864V498.18H208.834ZM222.334 497.854H219.609V496.018H222.334V497.854ZM217.931 494.752C217.931 496 217.802 497.187 217.544 498.312C217.292 499.437 216.897 500.441 216.358 501.326C215.824 502.211 215.148 502.905 214.327 503.409L212.956 501.739C213.712 501.271 214.333 500.667 214.819 499.929C215.306 499.185 215.657 498.376 215.874 497.503C216.097 496.63 216.208 495.713 216.208 494.752V491.992H217.931V494.752ZM218.379 494.646C218.379 495.59 218.473 496.475 218.66 497.301C218.848 498.121 219.158 498.883 219.592 499.586C220.031 500.289 220.597 500.866 221.288 501.317L220.075 503.04C219.261 502.548 218.605 501.868 218.107 501.001C217.609 500.134 217.248 499.17 217.026 498.109C216.809 497.049 216.7 495.895 216.7 494.646V491.992H218.379V494.646ZM227.124 506.617H224.971V490.604H227.124V506.617ZM223.776 505.879H221.675V490.85H223.776V505.879ZM233.945 503.251H231.721V498.76H233.945V503.251ZM239.833 503.251H237.575V498.76H239.833V503.251ZM243.085 504.745H228.46V502.908H243.085V504.745ZM235.747 491.395C236.901 491.395 237.932 491.573 238.84 491.931C239.754 492.288 240.469 492.792 240.985 493.442C241.506 494.093 241.767 494.84 241.767 495.684C241.767 496.533 241.509 497.283 240.994 497.934C240.478 498.578 239.763 499.079 238.849 499.437C237.941 499.788 236.907 499.967 235.747 499.973C234.592 499.967 233.558 499.788 232.644 499.437C231.736 499.079 231.024 498.578 230.508 497.934C229.993 497.283 229.735 496.533 229.735 495.684C229.735 494.84 229.993 494.093 230.508 493.442C231.024 492.792 231.739 492.288 232.653 491.931C233.567 491.573 234.598 491.395 235.747 491.395ZM235.747 493.17C234.985 493.164 234.32 493.261 233.751 493.46C233.183 493.659 232.741 493.949 232.424 494.33C232.108 494.705 231.95 495.156 231.95 495.684C231.95 496.205 232.108 496.659 232.424 497.046C232.741 497.427 233.183 497.723 233.751 497.934C234.326 498.139 234.991 498.241 235.747 498.241C236.497 498.241 237.159 498.139 237.733 497.934C238.307 497.723 238.752 497.427 239.069 497.046C239.391 496.659 239.552 496.205 239.552 495.684C239.552 495.156 239.394 494.705 239.078 494.33C238.761 493.955 238.316 493.668 237.742 493.469C237.173 493.264 236.508 493.164 235.747 493.17ZM247.05 501.194H244.808L244.571 492.273H247.296L247.05 501.194ZM245.933 505.158C245.67 505.158 245.424 505.091 245.195 504.956C244.967 504.815 244.785 504.634 244.65 504.411C244.521 504.183 244.457 503.937 244.457 503.673C244.457 503.415 244.521 503.175 244.65 502.952C244.785 502.724 244.967 502.545 245.195 502.416C245.424 502.287 245.67 502.223 245.933 502.223C246.191 502.223 246.431 502.287 246.654 502.416C246.883 502.545 247.064 502.724 247.199 502.952C247.34 503.175 247.41 503.415 247.41 503.673C247.41 503.937 247.34 504.183 247.199 504.411C247.064 504.634 246.883 504.815 246.654 504.956C246.431 505.091 246.191 505.158 245.933 505.158Z" fill="#4D5155"/>
</g>
</svg>
