<svg width="72" height="72" viewBox="0 0 72 72" fill="none" xmlns="http://www.w3.org/2000/svg">
<path fill-rule="evenodd" clip-rule="evenodd" d="M36 66C52.5685 66 66 52.5685 66 36C66 19.4315 52.5685 6 36 6C19.4315 6 6 19.4315 6 36C6 52.5685 19.4315 66 36 66ZM36 72C55.8822 72 72 55.8822 72 36C72 16.1177 55.8822 0 36 0C16.1177 0 0 16.1177 0 36C0 55.8822 16.1177 72 36 72Z" fill="#26282A"/>
<path d="M38.8359 43.8516H32.8594L32.2266 20.0625H39.4922L38.8359 43.8516ZM35.8594 54.4219C35.1562 54.4219 34.5 54.2422 33.8906 53.8828C33.2812 53.5078 32.7969 53.0234 32.4375 52.4297C32.0938 51.8203 31.9219 51.1641 31.9219 50.4609C31.9219 49.7734 32.0938 49.1328 32.4375 48.5391C32.7969 47.9297 33.2812 47.4531 33.8906 47.1094C34.5 46.7656 35.1562 46.5938 35.8594 46.5938C36.5469 46.5938 37.1875 46.7656 37.7812 47.1094C38.3906 47.4531 38.875 47.9297 39.2344 48.5391C39.6094 49.1328 39.7969 49.7734 39.7969 50.4609C39.7969 51.1641 39.6094 51.8203 39.2344 52.4297C38.875 53.0234 38.3906 53.5078 37.7812 53.8828C37.1875 54.2422 36.5469 54.4219 35.8594 54.4219Z" fill="#26282A"/>
</svg>
