<svg width="29" height="29" viewBox="0 0 29 29" fill="none" xmlns="http://www.w3.org/2000/svg">
<path fill-rule="evenodd" clip-rule="evenodd" d="M26.1567 22.935C27.8061 20.6382 28.7773 17.8214 28.7773 14.7778C28.7773 7.04585 22.5093 0.777832 14.7773 0.777832C7.04536 0.777832 0.777344 7.04585 0.777344 14.7778C0.777344 22.5098 7.04536 28.7778 14.7773 28.7778C17.2005 28.7778 19.4799 28.1622 21.4677 27.0788L25.9806 28.288C26.7517 28.4946 27.4573 27.789 27.2507 27.0179L26.1567 22.935Z" fill="#2B91FF"/>
<path d="M22.2575 16.2131C21.4796 20.7696 17.6289 22.783 13.7524 22.342C10.44 21.9652 7.68701 19.2769 6.94975 16.2131C6.40998 13.97 7.07234 11.6653 9.02076 11.887C10.9692 12.1086 11.4378 15.2592 10.0725 17.6585C9.32172 18.9778 8.51697 19.7325 6.18363 21.5473" stroke="white" stroke-width="2.06016"/>
</svg>
